<svg xmlns="http://www.w3.org/2000/svg" viewBox="0 0 1280 720" width="1280" height="720">
  <defs>
    <linearGradient id="headerGrad" x1="0%" y1="0%" x2="100%" y2="0%">
      <stop offset="0%" stop-color="#1E2761" />
      <stop offset="100%" stop-color="#2A3A7E" />
    </linearGradient>
  </defs>

  
  <rect width="1280" height="720" fill="#F8FAFC" />

  
  <rect width="1280" height="65" fill="url(#headerGrad)" />
  <text x="60" y="42" font-family="SimHei, Microsoft YaHei, sans-serif" font-size="28" fill="#FFFFFF" font-weight="bold">三级架构设计</text>
  <text x="340" y="42" font-family="Microsoft YaHei, Arial, sans-serif" font-size="14" fill="#CADCFC">"外挂知识库—RAG检索增强—交互式提示" 三级架构</text>

  
  <path fill="#4A7BF7" fill-opacity="0.08" stroke="#4A7BF7" stroke-width="2" d="M90,100 H1190 A10,10 0 0 1 1200,110 V250 A10,10 0 0 1 1190,260 H90 A10,10 0 0 1 80,250 V110 A10,10 0 0 1 90,100 Z" />
  <rect x="80" y="100" width="8" height="160" fill="#4A7BF7" />

  
  <path fill="#4A7BF7" d="M113,115 H137 A13,13 0 0 1 150,128 V128 A13,13 0 0 1 137,141 H113 A13,13 0 0 1 100,128 V128 A13,13 0 0 1 113,115 Z" />
  <text x="125" y="133" font-family="SimHei, Microsoft YaHei, sans-serif" font-size="13" fill="#FFFFFF" text-anchor="middle" font-weight="bold">M3</text>
  <text x="165" y="133" font-family="SimHei, Microsoft YaHei, sans-serif" font-size="20" fill="#1E2761" font-weight="bold">第三级：交互式提示词工程</text>

  
  <path fill="#FFFFFF" stroke="#4A7BF7" stroke-width="1" d="M116,155 H304 A6,6 0 0 1 310,161 V193 A6,6 0 0 1 304,199 H116 A6,6 0 0 1 110,193 V161 A6,6 0 0 1 116,155 Z" />
  <text x="210" y="182" font-family="Microsoft YaHei, Arial, sans-serif" font-size="14" fill="#1E2761" text-anchor="middle">聊天助手管理</text>

  <path fill="#FFFFFF" stroke="#4A7BF7" stroke-width="1" d="M336,155 H524 A6,6 0 0 1 530,161 V193 A6,6 0 0 1 524,199 H336 A6,6 0 0 1 330,193 V161 A6,6 0 0 1 336,155 Z" />
  <text x="430" y="182" font-family="Microsoft YaHei, Arial, sans-serif" font-size="14" fill="#1E2761" text-anchor="middle">系统提示词配置</text>

  <path fill="#FFFFFF" stroke="#4A7BF7" stroke-width="1" d="M556,155 H744 A6,6 0 0 1 750,161 V193 A6,6 0 0 1 744,199 H556 A6,6 0 0 1 550,193 V161 A6,6 0 0 1 556,155 Z" />
  <text x="650" y="182" font-family="Microsoft YaHei, Arial, sans-serif" font-size="14" fill="#1E2761" text-anchor="middle">多轮上下文对话</text>

  <path fill="#FFFFFF" stroke="#4A7BF7" stroke-width="1" d="M776,155 H964 A6,6 0 0 1 970,161 V193 A6,6 0 0 1 964,199 H776 A6,6 0 0 1 770,193 V161 A6,6 0 0 1 776,155 Z" />
  <text x="870" y="182" font-family="Microsoft YaHei, Arial, sans-serif" font-size="14" fill="#1E2761" text-anchor="middle">引用溯源 · 流式响应</text>

  <text x="110" y="225" font-family="Microsoft YaHei, Arial, sans-serif" font-size="12" fill="#64748B">输入：用户查询 + 第二级检索结果</text>
  <text x="500" y="225" font-family="Microsoft YaHei, Arial, sans-serif" font-size="12" fill="#64748B">输出：精准提示 → LLM生成 → 结构化回答</text>

  
  <line x1="640" y1="260" x2="640" y2="285" stroke="#2DD4A8" stroke-width="3" />
  <polygon points="632,285 648,285 640,298" fill="#2DD4A8" />
  <text x="660" y="282" font-family="Microsoft YaHei, Arial, sans-serif" font-size="11" fill="#2DD4A8">精准提示 + 检索结果</text>

  
  <path fill="#2DD4A8" fill-opacity="0.08" stroke="#2DD4A8" stroke-width="2" d="M90,300 H1190 A10,10 0 0 1 1200,310 V450 A10,10 0 0 1 1190,460 H90 A10,10 0 0 1 80,450 V310 A10,10 0 0 1 90,300 Z" />
  <rect x="80" y="300" width="8" height="160" fill="#2DD4A8" />

  <path fill="#2DD4A8" d="M113,315 H137 A13,13 0 0 1 150,328 V328 A13,13 0 0 1 137,341 H113 A13,13 0 0 1 100,328 V328 A13,13 0 0 1 113,315 Z" />
  <text x="125" y="333" font-family="SimHei, Microsoft YaHei, sans-serif" font-size="13" fill="#FFFFFF" text-anchor="middle" font-weight="bold">M2</text>
  <text x="165" y="333" font-family="SimHei, Microsoft YaHei, sans-serif" font-size="20" fill="#1E2761" font-weight="bold">第二级：RAG文档检索增强</text>

  
  <path fill="#FFFFFF" stroke="#2DD4A8" stroke-width="1" d="M116,355 H274 A6,6 0 0 1 280,361 V393 A6,6 0 0 1 274,399 H116 A6,6 0 0 1 110,393 V361 A6,6 0 0 1 116,355 Z" />
  <text x="195" y="382" font-family="Microsoft YaHei, Arial, sans-serif" font-size="14" fill="#1E2761" text-anchor="middle">向量语义检索</text>

  <path fill="#FFFFFF" stroke="#2DD4A8" stroke-width="1" d="M306,355 H464 A6,6 0 0 1 470,361 V393 A6,6 0 0 1 464,399 H306 A6,6 0 0 1 300,393 V361 A6,6 0 0 1 306,355 Z" />
  <text x="385" y="382" font-family="Microsoft YaHei, Arial, sans-serif" font-size="14" fill="#1E2761" text-anchor="middle">混合检索</text>

  <path fill="#FFFFFF" stroke="#2DD4A8" stroke-width="1" d="M496,355 H654 A6,6 0 0 1 660,361 V393 A6,6 0 0 1 654,399 H496 A6,6 0 0 1 490,393 V361 A6,6 0 0 1 496,355 Z" />
  <text x="575" y="382" font-family="Microsoft YaHei, Arial, sans-serif" font-size="14" fill="#1E2761" text-anchor="middle">相似度阈值调节</text>

  <path fill="#FFFFFF" stroke="#2DD4A8" stroke-width="1" d="M686,355 H844 A6,6 0 0 1 850,361 V393 A6,6 0 0 1 844,399 H686 A6,6 0 0 1 680,393 V361 A6,6 0 0 1 686,355 Z" />
  <text x="765" y="382" font-family="Microsoft YaHei, Arial, sans-serif" font-size="14" fill="#1E2761" text-anchor="middle">检索结果重排序</text>

  <path fill="#FFFFFF" stroke="#2DD4A8" stroke-width="1" d="M876,355 H1034 A6,6 0 0 1 1040,361 V393 A6,6 0 0 1 1034,399 H876 A6,6 0 0 1 870,393 V361 A6,6 0 0 1 876,355 Z" />
  <text x="955" y="382" font-family="Microsoft YaHei, Arial, sans-serif" font-size="14" fill="#1E2761" text-anchor="middle">知识图谱 · 跨语言</text>

  <text x="110" y="425" font-family="Microsoft YaHei, Arial, sans-serif" font-size="12" fill="#64748B">输入：用户查询 + 第一级知识库</text>
  <text x="500" y="425" font-family="Microsoft YaHei, Arial, sans-serif" font-size="12" fill="#64748B">输出：结构化知识片段 + 相关度评分</text>

  
  <line x1="640" y1="460" x2="640" y2="485" stroke="#1E2761" stroke-width="3" />
  <polygon points="632,485 648,485 640,498" fill="#1E2761" />
  <text x="660" y="482" font-family="Microsoft YaHei, Arial, sans-serif" font-size="11" fill="#1E2761">结构化知识片段</text>

  
  <path fill="#1E2761" fill-opacity="0.06" stroke="#1E2761" stroke-width="2" d="M90,500 H1190 A10,10 0 0 1 1200,510 V650 A10,10 0 0 1 1190,660 H90 A10,10 0 0 1 80,650 V510 A10,10 0 0 1 90,500 Z" />
  <rect x="80" y="500" width="8" height="160" fill="#1E2761" />

  <path fill="#1E2761" d="M113,515 H137 A13,13 0 0 1 150,528 V528 A13,13 0 0 1 137,541 H113 A13,13 0 0 1 100,528 V528 A13,13 0 0 1 113,515 Z" />
  <text x="125" y="533" font-family="SimHei, Microsoft YaHei, sans-serif" font-size="13" fill="#FFFFFF" text-anchor="middle" font-weight="bold">M1</text>
  <text x="165" y="533" font-family="SimHei, Microsoft YaHei, sans-serif" font-size="20" fill="#1E2761" font-weight="bold">第一级：外挂知识库</text>

  
  <path fill="#FFFFFF" stroke="#1E2761" stroke-width="1" d="M116,555 H274 A6,6 0 0 1 280,561 V593 A6,6 0 0 1 274,599 H116 A6,6 0 0 1 110,593 V561 A6,6 0 0 1 116,555 Z" />
  <text x="195" y="582" font-family="Microsoft YaHei, Arial, sans-serif" font-size="14" fill="#1E2761" text-anchor="middle">知识库CRUD</text>

  <path fill="#FFFFFF" stroke="#1E2761" stroke-width="1" d="M306,555 H464 A6,6 0 0 1 470,561 V593 A6,6 0 0 1 464,599 H306 A6,6 0 0 1 300,593 V561 A6,6 0 0 1 306,555 Z" />
  <text x="385" y="582" font-family="Microsoft YaHei, Arial, sans-serif" font-size="14" fill="#1E2761" text-anchor="middle">文档上传解析</text>

  <path fill="#FFFFFF" stroke="#1E2761" stroke-width="1" d="M496,555 H654 A6,6 0 0 1 660,561 V593 A6,6 0 0 1 654,599 H496 A6,6 0 0 1 490,593 V561 A6,6 0 0 1 496,555 Z" />
  <text x="575" y="582" font-family="Microsoft YaHei, Arial, sans-serif" font-size="14" fill="#1E2761" text-anchor="middle">智能分块</text>

  <path fill="#FFFFFF" stroke="#1E2761" stroke-width="1" d="M686,555 H844 A6,6 0 0 1 850,561 V593 A6,6 0 0 1 844,599 H686 A6,6 0 0 1 680,593 V561 A6,6 0 0 1 686,555 Z" />
  <text x="765" y="582" font-family="Microsoft YaHei, Arial, sans-serif" font-size="14" fill="#1E2761" text-anchor="middle">元数据标注</text>

  <path fill="#FFFFFF" stroke="#1E2761" stroke-width="1" d="M876,555 H1034 A6,6 0 0 1 1040,561 V593 A6,6 0 0 1 1034,599 H876 A6,6 0 0 1 870,593 V561 A6,6 0 0 1 876,555 Z" />
  <text x="955" y="582" font-family="Microsoft YaHei, Arial, sans-serif" font-size="14" fill="#1E2761" text-anchor="middle">多源数据整合</text>

  <text x="110" y="625" font-family="Microsoft YaHei, Arial, sans-serif" font-size="12" fill="#64748B">输入：非结构化军事文档</text>
  <text x="500" y="625" font-family="Microsoft YaHei, Arial, sans-serif" font-size="12" fill="#64748B">输出：结构化知识块 + 向量索引 + 元数据</text>

  
  <text x="1080" y="680" font-family="Microsoft YaHei, Arial, sans-serif" font-size="11" fill="#94A3B8">基于 ragflow v0.18.0 领域适配</text>

  
  <text x="1220" y="700" font-family="Microsoft YaHei, Arial, sans-serif" font-size="12" fill="#94A3B8" text-anchor="end">3 / 14</text>
</svg>