<svg xmlns="http://www.w3.org/2000/svg" viewBox="0 0 1280 720" width="1280" height="720">
  <defs>
    <linearGradient id="headerGrad" x1="0%" y1="0%" x2="100%" y2="0%">
      <stop offset="0%" stop-color="#1E2761" />
      <stop offset="100%" stop-color="#2A3A7E" />
    </linearGradient>
  </defs>

  <rect width="1280" height="720" fill="#F8FAFC" />
  <rect width="1280" height="65" fill="url(#headerGrad)" />
  <text x="60" y="42" font-family="SimHei, Microsoft YaHei, sans-serif" font-size="28" fill="#FFFFFF" font-weight="bold">系统部署架构</text>
  <text x="300" y="42" font-family="Microsoft YaHei, Arial, sans-serif" font-size="14" fill="#CADCFC">Docker Compose容器化编排 · 离线部署 · 7个服务容器</text>

  
  <path fill="none" stroke="#1E2761" stroke-width="2" stroke-dasharray="8,4" d="M52,80 H1228 A12,12 0 0 1 1240,92 V668 A12,12 0 0 1 1228,680 H52 A12,12 0 0 1 40,668 V92 A12,12 0 0 1 52,80 Z" />
  <text x="80" y="105" font-family="SimHei, Microsoft YaHei, sans-serif" font-size="16" fill="#1E2761" font-weight="bold">Docker Compose 容器编排</text>

  
  
  <path fill="#4A7BF7" fill-opacity="0.12" stroke="#4A7BF7" stroke-width="1.5" d="M78,125 H402 A8,8 0 0 1 410,133 V217 A8,8 0 0 1 402,225 H78 A8,8 0 0 1 70,217 V133 A8,8 0 0 1 78,125 Z" />
  <text x="240" y="160" font-family="SimHei, Microsoft YaHei, sans-serif" font-size="16" fill="#1E2761" text-anchor="middle" font-weight="bold">gaisoft-frontend</text>
  <text x="240" y="182" font-family="Microsoft YaHei, Arial, sans-serif" font-size="13" fill="#64748B" text-anchor="middle">nginx:1.27-alpine · :8899</text>
  <text x="240" y="200" font-family="Microsoft YaHei, Arial, sans-serif" font-size="12" fill="#64748B" text-anchor="middle">Vue 3 前端静态资源托管</text>

  
  <path fill="#2DD4A8" fill-opacity="0.12" stroke="#2DD4A8" stroke-width="1.5" d="M448,125 H772 A8,8 0 0 1 780,133 V217 A8,8 0 0 1 772,225 H448 A8,8 0 0 1 440,217 V133 A8,8 0 0 1 448,125 Z" />
  <text x="610" y="160" font-family="SimHei, Microsoft YaHei, sans-serif" font-size="16" fill="#1E2761" text-anchor="middle" font-weight="bold">gaisoft-server</text>
  <text x="610" y="182" font-family="Microsoft YaHei, Arial, sans-serif" font-size="13" fill="#64748B" text-anchor="middle">Spring Boot · :8088</text>
  <text x="610" y="200" font-family="Microsoft YaHei, Arial, sans-serif" font-size="12" fill="#64748B" text-anchor="middle">业务逻辑与API服务</text>

  
  <path fill="#1E2761" fill-opacity="0.1" stroke="#1E2761" stroke-width="1.5" d="M818,125 H1202 A8,8 0 0 1 1210,133 V217 A8,8 0 0 1 1202,225 H818 A8,8 0 0 1 810,217 V133 A8,8 0 0 1 818,125 Z" />
  <text x="1010" y="160" font-family="SimHei, Microsoft YaHei, sans-serif" font-size="16" fill="#1E2761" text-anchor="middle" font-weight="bold">ragflow-server v0.18.0</text>
  <text x="1010" y="182" font-family="Microsoft YaHei, Arial, sans-serif" font-size="13" fill="#64748B" text-anchor="middle">RAG核心引擎 · :9380/:8070</text>
  <text x="1010" y="200" font-family="Microsoft YaHei, Arial, sans-serif" font-size="12" fill="#64748B" text-anchor="middle">文档解析/向量索引/混合检索/LLM对话</text>

  
  <path fill="#E0E7FF" d="M76,245 H1204 A6,6 0 0 1 1210,251 V274 A6,6 0 0 1 1204,280 H76 A6,6 0 0 1 70,274 V251 A6,6 0 0 1 76,245 Z" />
  <text x="640" y="268" font-family="SimHei, Microsoft YaHei, sans-serif" font-size="14" fill="#1E2761" text-anchor="middle" font-weight="bold">ragflow 桥接网络 (bridge) — 所有服务共享</text>

  
  <line x1="240" y1="225" x2="240" y2="245" stroke="#4A7BF7" stroke-width="1.5" />
  <line x1="610" y1="225" x2="610" y2="245" stroke="#2DD4A8" stroke-width="1.5" />
  <line x1="1010" y1="225" x2="1010" y2="245" stroke="#1E2761" stroke-width="1.5" />

  
  <line x1="240" y1="280" x2="240" y2="300" stroke="#4A7BF7" stroke-width="1.5" />
  <line x1="610" y1="280" x2="610" y2="300" stroke="#2DD4A8" stroke-width="1.5" />
  <line x1="1010" y1="280" x2="1010" y2="300" stroke="#1E2761" stroke-width="1.5" />

  
  
  <path fill="#FFFFFF" stroke="#1E2761" stroke-width="1.5" d="M78,300 H322 A8,8 0 0 1 330,308 V402 A8,8 0 0 1 322,410 H78 A8,8 0 0 1 70,402 V308 A8,8 0 0 1 78,300 Z" />
  <path fill="#1E2761" d="M78,300 H322 A8,8 0 0 1 330,308 V322 A8,8 0 0 1 322,330 H78 A8,8 0 0 1 70,322 V308 A8,8 0 0 1 78,300 Z" />
  <rect x="70" y="318" width="260" height="12" fill="#1E2761" />
  <text x="200" y="320" font-family="SimHei, Microsoft YaHei, sans-serif" font-size="14" fill="#FFFFFF" text-anchor="middle" font-weight="bold">MySQL 8.0</text>
  <text x="200" y="355" font-family="Microsoft YaHei, Arial, sans-serif" font-size="12" fill="#1E293B" text-anchor="middle">:5455</text>
  <text x="200" y="375" font-family="Microsoft YaHei, Arial, sans-serif" font-size="12" fill="#64748B" text-anchor="middle">rag_flow + equipment_iqas</text>
  <text x="200" y="395" font-family="Microsoft YaHei, Arial, sans-serif" font-size="11" fill="#64748B" text-anchor="middle">结构化数据 + 初始化脚本</text>

  
  <path fill="#FFFFFF" stroke="#2DD4A8" stroke-width="1.5" d="M368,300 H612 A8,8 0 0 1 620,308 V402 A8,8 0 0 1 612,410 H368 A8,8 0 0 1 360,402 V308 A8,8 0 0 1 368,300 Z" />
  <path fill="#2DD4A8" d="M368,300 H612 A8,8 0 0 1 620,308 V322 A8,8 0 0 1 612,330 H368 A8,8 0 0 1 360,322 V308 A8,8 0 0 1 368,300 Z" />
  <rect x="360" y="318" width="260" height="12" fill="#2DD4A8" />
  <text x="490" y="320" font-family="SimHei, Microsoft YaHei, sans-serif" font-size="14" fill="#FFFFFF" text-anchor="middle" font-weight="bold">Elasticsearch 8.11</text>
  <text x="490" y="355" font-family="Microsoft YaHei, Arial, sans-serif" font-size="12" fill="#1E293B" text-anchor="middle">:1200</text>
  <text x="490" y="375" font-family="Microsoft YaHei, Arial, sans-serif" font-size="12" fill="#64748B" text-anchor="middle">向量索引 + 全文检索</text>
  <text x="490" y="395" font-family="Microsoft YaHei, Arial, sans-serif" font-size="11" fill="#64748B" text-anchor="middle">8GB JVM Heap</text>

  
  <path fill="#FFFFFF" stroke="#4A7BF7" stroke-width="1.5" d="M658,300 H902 A8,8 0 0 1 910,308 V402 A8,8 0 0 1 902,410 H658 A8,8 0 0 1 650,402 V308 A8,8 0 0 1 658,300 Z" />
  <path fill="#4A7BF7" d="M658,300 H902 A8,8 0 0 1 910,308 V322 A8,8 0 0 1 902,330 H658 A8,8 0 0 1 650,322 V308 A8,8 0 0 1 658,300 Z" />
  <rect x="650" y="318" width="260" height="12" fill="#4A7BF7" />
  <text x="780" y="320" font-family="SimHei, Microsoft YaHei, sans-serif" font-size="14" fill="#FFFFFF" text-anchor="middle" font-weight="bold">Valkey/Redis 8</text>
  <text x="780" y="355" font-family="Microsoft YaHei, Arial, sans-serif" font-size="12" fill="#1E293B" text-anchor="middle">:6380</text>
  <text x="780" y="375" font-family="Microsoft YaHei, Arial, sans-serif" font-size="12" fill="#64748B" text-anchor="middle">会话缓存 + 检索缓存</text>
  <text x="780" y="395" font-family="Microsoft YaHei, Arial, sans-serif" font-size="11" fill="#64748B" text-anchor="middle">DB8 for gaisoft</text>

  
  <path fill="#FFFFFF" stroke="#94A3B8" stroke-width="1.5" d="M948,300 H1212 A8,8 0 0 1 1220,308 V402 A8,8 0 0 1 1212,410 H948 A8,8 0 0 1 940,402 V308 A8,8 0 0 1 948,300 Z" />
  <path fill="#94A3B8" d="M948,300 H1212 A8,8 0 0 1 1220,308 V322 A8,8 0 0 1 1212,330 H948 A8,8 0 0 1 940,322 V308 A8,8 0 0 1 948,300 Z" />
  <rect x="940" y="318" width="280" height="12" fill="#94A3B8" />
  <text x="1080" y="320" font-family="SimHei, Microsoft YaHei, sans-serif" font-size="14" fill="#FFFFFF" text-anchor="middle" font-weight="bold">MinIO</text>
  <text x="1080" y="355" font-family="Microsoft YaHei, Arial, sans-serif" font-size="12" fill="#1E293B" text-anchor="middle">:9100</text>
  <text x="1080" y="375" font-family="Microsoft YaHei, Arial, sans-serif" font-size="12" fill="#64748B" text-anchor="middle">文档文件对象存储</text>
  <text x="1080" y="395" font-family="Microsoft YaHei, Arial, sans-serif" font-size="11" fill="#64748B" text-anchor="middle">PDF/Word/Excel/TXT...</text>

  
  <path fill="#F8FAFC" stroke="#E2E8F0" stroke-width="1" d="M76,430 H1204 A6,6 0 0 1 1210,436 V454 A6,6 0 0 1 1204,460 H76 A6,6 0 0 1 70,454 V436 A6,6 0 0 1 76,430 Z" />
  <text x="640" y="450" font-family="Microsoft YaHei, Arial, sans-serif" font-size="13" fill="#64748B" text-anchor="middle">Docker Volume 数据持久化 — mysql_data / es_data / minio_data / redis_data</text>

  
  <path fill="#1E2761" fill-opacity="0.05" stroke="#1E2761" stroke-width="1" stroke-dasharray="6,3" d="M78,480 H1202 A8,8 0 0 1 1210,488 V562 A8,8 0 0 1 1202,570 H78 A8,8 0 0 1 70,562 V488 A8,8 0 0 1 78,480 Z" />
  <text x="90" y="508" font-family="SimHei, Microsoft YaHei, sans-serif" font-size="15" fill="#1E2761" font-weight="bold">离线部署链路</text>

  <path fill="#FFFFFF" stroke="#4A7BF7" stroke-width="1" d="M96,520 H264 A6,6 0 0 1 270,526 V549 A6,6 0 0 1 264,555 H96 A6,6 0 0 1 90,549 V526 A6,6 0 0 1 96,520 Z" />
  <text x="180" y="542" font-family="Microsoft YaHei, Arial, sans-serif" font-size="13" fill="#1E2761" text-anchor="middle">联网环境 docker pull</text>

  <text x="290" y="542" font-family="Microsoft YaHei, Arial, sans-serif" font-size="18" fill="#4A7BF7">→</text>

  <path fill="#FFFFFF" stroke="#2DD4A8" stroke-width="1" d="M326,520 H494 A6,6 0 0 1 500,526 V549 A6,6 0 0 1 494,555 H326 A6,6 0 0 1 320,549 V526 A6,6 0 0 1 326,520 Z" />
  <text x="410" y="542" font-family="Microsoft YaHei, Arial, sans-serif" font-size="13" fill="#1E2761" text-anchor="middle">offline-save 导出tar</text>

  <text x="520" y="542" font-family="Microsoft YaHei, Arial, sans-serif" font-size="18" fill="#2DD4A8">→</text>

  <path fill="#1E2761" d="M556,520 H664 A6,6 0 0 1 670,526 V549 A6,6 0 0 1 664,555 H556 A6,6 0 0 1 550,549 V526 A6,6 0 0 1 556,520 Z" />
  <text x="610" y="542" font-family="Microsoft YaHei, Arial, sans-serif" font-size="13" fill="#FFFFFF" text-anchor="middle">USB传输</text>

  <text x="690" y="542" font-family="Microsoft YaHei, Arial, sans-serif" font-size="18" fill="#1E2761">→</text>

  <path fill="#FFFFFF" stroke="#1E2761" stroke-width="1" d="M726,520 H894 A6,6 0 0 1 900,526 V549 A6,6 0 0 1 894,555 H726 A6,6 0 0 1 720,549 V526 A6,6 0 0 1 726,520 Z" />
  <text x="810" y="542" font-family="Microsoft YaHei, Arial, sans-serif" font-size="13" fill="#1E2761" text-anchor="middle">offline-load 加载</text>

  <text x="920" y="542" font-family="Microsoft YaHei, Arial, sans-serif" font-size="18" fill="#1E2761">→</text>

  <path fill="#FFFFFF" stroke="#1E2761" stroke-width="1" d="M956,520 H1124 A6,6 0 0 1 1130,526 V549 A6,6 0 0 1 1124,555 H956 A6,6 0 0 1 950,549 V526 A6,6 0 0 1 956,520 Z" />
  <text x="1040" y="542" font-family="Microsoft YaHei, Arial, sans-serif" font-size="13" fill="#1E2761" text-anchor="middle">start 启动全部服务</text>

  
  <text x="90" y="580" font-family="Microsoft YaHei, Arial, sans-serif" font-size="12" fill="#64748B">所有服务 restart: unless-stopped — 主机重启后自动恢复</text>

  
  <text x="1220" y="700" font-family="Microsoft YaHei, Arial, sans-serif" font-size="12" fill="#94A3B8" text-anchor="end">5 / 14</text>
</svg>