<svg xmlns="http://www.w3.org/2000/svg" viewBox="0 0 960 400" width="960" height="400">
<style>text { font-family: "Microsoft YaHei", "SimHei", Arial, sans-serif; }</style>
<defs>
  <marker id="ab" markerWidth="10" markerHeight="7" refX="9" refY="3.5" orient="auto"><polygon points="0 0,10 3.5,0 7" fill="#2563eb"/></marker>
  <marker id="ap" markerWidth="10" markerHeight="7" refX="9" refY="3.5" orient="auto"><polygon points="0 0,10 3.5,0 7" fill="#9333ea"/></marker>
  <marker id="ag" markerWidth="10" markerHeight="7" refX="9" refY="3.5" orient="auto"><polygon points="0 0,10 3.5,0 7" fill="#16a34a"/></marker>
  <filter id="s1" x="-4%" y="-4%" width="108%" height="108%"><feDropShadow dx="0" dy="2" stdDeviation="3" flood-opacity="0.08"/></filter>
</defs>
<rect width="960" height="400" fill="#ffffff"/>
<text x="480" y="28" text-anchor="middle" fill="#111827" font-size="18" font-weight="600">DARPA智能问答服务工具 — 数据流图</text>

<!-- Row 1: Knowledge ingestion flow -->
<rect x="40" y="50" width="880" height="100" rx="10" fill="#f0fdf4" stroke="#86efac" stroke-width="1.2" stroke-dasharray="6,3"/>
<text x="60" y="70" fill="#16a34a" font-size="11" font-weight="600">知识入库流</text>
<rect x="60" y="80" width="120" height="50" rx="6" fill="#fff" stroke="#6ee7b7" stroke-width="1" filter="url(#s1)"/>
<text x="120" y="100" text-anchor="middle" fill="#111827" font-size="11">军事文档</text>
<text x="120" y="116" text-anchor="middle" fill="#6b7280" font-size="9">PDF/Word/...</text>
<rect x="240" y="80" width="120" height="50" rx="6" fill="#fff" stroke="#6ee7b7" stroke-width="1" filter="url(#s1)"/>
<text x="300" y="100" text-anchor="middle" fill="#111827" font-size="11">深度解析</text>
<text x="300" y="116" text-anchor="middle" fill="#6b7280" font-size="9">表格/图文</text>
<rect x="420" y="80" width="120" height="50" rx="6" fill="#fff" stroke="#6ee7b7" stroke-width="1" filter="url(#s1)"/>
<text x="480" y="100" text-anchor="middle" fill="#111827" font-size="11">语义化分块</text>
<text x="480" y="116" text-anchor="middle" fill="#6b7280" font-size="9">段落/章节</text>
<rect x="600" y="80" width="120" height="50" rx="6" fill="#fff" stroke="#6ee7b7" stroke-width="1" filter="url(#s1)"/>
<text x="660" y="100" text-anchor="middle" fill="#111827" font-size="11">向量化索引</text>
<text x="660" y="116" text-anchor="middle" fill="#6b7280" font-size="9">Embedding</text>
<rect x="780" y="80" width="120" height="50" rx="6" fill="#fff" stroke="#6ee7b7" stroke-width="1" filter="url(#s1)"/>
<text x="840" y="100" text-anchor="middle" fill="#111827" font-size="11">ES+MinIO</text>
<text x="840" y="116" text-anchor="middle" fill="#6b7280" font-size="9">持久存储</text>

<line x1="180" y1="105" x2="240" y2="105" stroke="#16a34a" stroke-width="1.5" marker-end="url(#ag)"/>
<line x1="360" y1="105" x2="420" y2="105" stroke="#16a34a" stroke-width="1.5" marker-end="url(#ag)"/>
<line x1="540" y1="105" x2="600" y2="105" stroke="#16a34a" stroke-width="1.5" marker-end="url(#ag)"/>
<line x1="720" y1="105" x2="780" y2="105" stroke="#16a34a" stroke-width="1.5" marker-end="url(#ag)"/>

<!-- Row 2: Query flow -->
<rect x="40" y="170" width="880" height="100" rx="10" fill="#eff6ff" stroke="#93c5fd" stroke-width="1.2" stroke-dasharray="6,3"/>
<text x="60" y="190" fill="#2563eb" font-size="11" font-weight="600">问答检索流</text>
<rect x="60" y="200" width="120" height="50" rx="6" fill="#fff" stroke="#7dd3fc" stroke-width="1" filter="url(#s1)"/>
<text x="120" y="220" text-anchor="middle" fill="#111827" font-size="11">用户提问</text>
<text x="120" y="236" text-anchor="middle" fill="#6b7280" font-size="9">自然语言</text>
<rect x="240" y="200" width="120" height="50" rx="6" fill="#fff" stroke="#7dd3fc" stroke-width="1" filter="url(#s1)"/>
<text x="300" y="220" text-anchor="middle" fill="#111827" font-size="11">混合检索</text>
<text x="300" y="236" text-anchor="middle" fill="#6b7280" font-size="9">向量+关键词</text>
<rect x="420" y="200" width="120" height="50" rx="6" fill="#fff" stroke="#7dd3fc" stroke-width="1" filter="url(#s1)"/>
<text x="480" y="220" text-anchor="middle" fill="#111827" font-size="11">重排序</text>
<text x="480" y="236" text-anchor="middle" fill="#6b7280" font-size="9">Reranking</text>
<rect x="600" y="200" width="120" height="50" rx="6" fill="#fff" stroke="#7dd3fc" stroke-width="1" filter="url(#s1)"/>
<text x="660" y="220" text-anchor="middle" fill="#111827" font-size="11">提示构建</text>
<text x="660" y="236" text-anchor="middle" fill="#6b7280" font-size="9">模板+约束</text>
<rect x="780" y="200" width="120" height="50" rx="6" fill="#fff" stroke="#7dd3fc" stroke-width="1" filter="url(#s1)"/>
<text x="840" y="220" text-anchor="middle" fill="#111827" font-size="11">LLM生成</text>
<text x="840" y="236" text-anchor="middle" fill="#6b7280" font-size="9">GLM-9B</text>

<line x1="180" y1="225" x2="240" y2="225" stroke="#2563eb" stroke-width="1.5" marker-end="url(#ab)"/>
<line x1="360" y1="225" x2="420" y2="225" stroke="#2563eb" stroke-width="1.5" marker-end="url(#ab)"/>
<line x1="540" y1="225" x2="600" y2="225" stroke="#2563eb" stroke-width="1.5" marker-end="url(#ab)"/>
<line x1="720" y1="225" x2="780" y2="225" stroke="#2563eb" stroke-width="1.5" marker-end="url(#ab)"/>

<!-- Row 3: Response flow -->
<rect x="40" y="290" width="880" height="80" rx="10" fill="#faf5ff" stroke="#c4b5fd" stroke-width="1.2" stroke-dasharray="6,3"/>
<text x="60" y="310" fill="#9333ea" font-size="11" font-weight="600">响应输出流</text>
<rect x="140" y="316" width="140" height="40" rx="6" fill="#fff" stroke="#c4b5fd" stroke-width="1" filter="url(#s1)"/>
<text x="210" y="340" text-anchor="middle" fill="#111827" font-size="11">引用溯源标注</text>
<rect x="340" y="316" width="140" height="40" rx="6" fill="#fff" stroke="#c4b5fd" stroke-width="1" filter="url(#s1)"/>
<text x="410" y="340" text-anchor="middle" fill="#111827" font-size="11">SSE流式输出</text>
<rect x="540" y="316" width="140" height="40" rx="6" fill="#fff" stroke="#c4b5fd" stroke-width="1" filter="url(#s1)"/>
<text x="610" y="340" text-anchor="middle" fill="#111827" font-size="11">多轮上下文</text>
<rect x="740" y="316" width="140" height="40" rx="6" fill="#fff" stroke="#c4b5fd" stroke-width="1" filter="url(#s1)"/>
<text x="810" y="340" text-anchor="middle" fill="#111827" font-size="11">用户浏览器</text>

<line x1="280" y1="336" x2="340" y2="336" stroke="#9333ea" stroke-width="1.5" marker-end="url(#ap)"/>
<line x1="480" y1="336" x2="540" y2="336" stroke="#9333ea" stroke-width="1.5" marker-end="url(#ap)"/>
<line x1="680" y1="336" x2="740" y2="336" stroke="#9333ea" stroke-width="1.5" marker-end="url(#ap)"/>

<!-- Connect row2 to row3 -->
<line x1="840" y1="250" x2="810" y2="316" stroke="#9333ea" stroke-width="1" stroke-dasharray="4,2"/>

<g transform="translate(40,384)">
  <line x1="0" y1="6" x2="25" y2="6" stroke="#16a34a" stroke-width="1.5" marker-end="url(#ag)"/>
  <text x="30" y="10" fill="#6b7280" font-size="10">知识入库</text>
  <line x1="110" y1="6" x2="135" y2="6" stroke="#2563eb" stroke-width="1.5" marker-end="url(#ab)"/>
  <text x="140" y="10" fill="#6b7280" font-size="10">问答检索</text>
  <line x1="220" y1="6" x2="245" y2="6" stroke="#9333ea" stroke-width="1.5" marker-end="url(#ap)"/>
  <text x="250" y="10" fill="#6b7280" font-size="10">响应输出</text>
</g>
</svg>