<svg xmlns="http://www.w3.org/2000/svg" viewBox="0 0 1100 700" font-family="Microsoft YaHei, SimHei, sans-serif">
  <defs>
    <style>
      .server-box { fill: #E3F2FD; stroke: #1565C0; stroke-width: 2; rx: 8; }
      .server-header { fill: #1565C0; }
      .server-header-text { fill: white; font-size: 13px; font-weight: bold; }
      .client-box { fill: #E8F5E9; stroke: #2E7D32; stroke-width: 2; rx: 8; }
      .client-header { fill: #2E7D32; }
      .client-header-text { fill: white; font-size: 13px; font-weight: bold; }
      .service-text { fill: #333; font-size: 11px; }
      .port-text { fill: #E65100; font-size: 10px; font-weight: bold; }
      .arrow { stroke: #455A64; stroke-width: 2; fill: none; marker-end: url(#arrowhead); }
      .arrow-dashed { stroke: #455A64; stroke-width: 1.5; fill: none; marker-end: url(#arrowhead); stroke-dasharray: 6,3; }
      .label { fill: #455A64; font-size: 10px; }
      .title { font-size: 20px; font-weight: bold; fill: #1a237e; }
      .note { fill: #666; font-size: 10px; font-style: italic; }
    </style>
    <marker id="arrowhead" markerWidth="10" markerHeight="7" refX="10" refY="3.5" orient="auto">
      <polygon points="0 0, 10 3.5, 0 7" fill="#455A64"/>
    </marker>
  </defs>

  <text x="550" y="30" text-anchor="middle" class="title">知枢(KnovaQ) 测试环境架构图</text>

  <!-- Test Client -->
  <g transform="translate(30, 60)">
    <rect class="client-box" x="0" y="0" width="200" height="180"/>
    <rect class="client-header" x="0" y="0" width="200" height="35" rx="8"/>
    <text x="100" y="23" text-anchor="middle" class="client-header-text">测试客户端</text>
    <text x="100" y="55" text-anchor="middle" class="service-text">浏览器 (Chrome)</text>
    <text x="100" y="72" text-anchor="middle" class="service-text">Playwright 自动化</text>
    <text x="100" y="92" text-anchor="middle" class="service-text">──────────────</text>
    <text x="100" y="110" text-anchor="middle" class="service-text">Pytest 测试框架</text>
    <text x="100" y="127" text-anchor="middle" class="service-text">requests HTTP客户端</text>
    <text x="100" y="147" text-anchor="middle" class="port-text">访问端口 :80</text>
    <text x="100" y="165" text-anchor="middle" class="note">Windows 测试机</text>
  </g>

  <!-- Docker Host -->
  <g transform="translate(290, 50)">
    <rect x="0" y="0" width="780" height="620" rx="12" fill="none" stroke="#9E9E9E" stroke-width="3" stroke-dasharray="10,5"/>
    <text x="390" y="25" text-anchor="middle" style="font-size:16px;font-weight:bold;fill:#616161">Docker Compose 容器集群 (Linux 服务器)</text>

    <!-- Nginx (ragflow built-in) -->
    <g transform="translate(30, 50)">
      <rect class="server-box" x="0" y="0" width="160" height="130"/>
      <rect class="server-header" x="0" y="0" width="160" height="30" rx="8"/>
      <text x="80" y="20" text-anchor="middle" class="server-header-text">Nginx</text>
      <text x="80" y="50" text-anchor="middle" class="service-text">反向代理</text>
      <text x="80" y="67" text-anchor="middle" class="service-text">静态资源服务</text>
      <text x="80" y="87" text-anchor="middle" class="port-text">:80 (对外)</text>
      <text x="80" y="107" text-anchor="middle" class="service-text">→ ragflow :9384</text>
      <text x="80" y="122" text-anchor="middle" class="service-text">→ gaisoft :8088</text>
    </g>

    <!-- ragflow-server -->
    <g transform="translate(30, 220)">
      <rect class="server-box" x="0" y="0" width="160" height="130"/>
      <rect class="server-header" x="0" y="0" width="160" height="30" rx="8"/>
      <text x="80" y="20" text-anchor="middle" class="server-header-text">ragflow-server</text>
      <text x="80" y="50" text-anchor="middle" class="service-text">RAG 引擎核心</text>
      <text x="80" y="67" text-anchor="middle" class="service-text">文档解析/分块</text>
      <text x="80" y="84" text-anchor="middle" class="service-text">向量检索</text>
      <text x="80" y="104" text-anchor="middle" class="port-text">:9384</text>
      <text x="80" y="122" text-anchor="middle" class="service-text">API v1 接口</text>
    </g>

    <!-- gaisoft-server -->
    <g transform="translate(230, 50)">
      <rect class="server-box" x="0" y="0" width="160" height="130"/>
      <rect class="server-header" x="0" y="0" width="160" height="30" rx="8"/>
      <text x="80" y="20" text-anchor="middle" class="server-header-text">gaisoft-server</text>
      <text x="80" y="50" text-anchor="middle" class="service-text">Spring Boot</text>
      <text x="80" y="67" text-anchor="middle" class="service-text">MES业务后端</text>
      <text x="80" y="84" text-anchor="middle" class="service-text">知识库管理API</text>
      <text x="80" y="104" text-anchor="middle" class="port-text">:8088</text>
      <text x="80" y="122" text-anchor="middle" class="service-text">问答代理/转发</text>
    </g>

    <!-- ragflow-mysql -->
    <g transform="translate(230, 220)">
      <rect class="server-box" x="0" y="0" width="160" height="130" style="fill:#E8EAF6;stroke:#283593"/>
      <rect x="0" y="0" width="160" height="30" rx="8" style="fill:#283593"/>
      <text x="80" y="20" text-anchor="middle" style="fill:white;font-size:13px;font-weight:bold">ragflow-mysql</text>
      <text x="80" y="50" text-anchor="middle" class="service-text">MySQL 8.0</text>
      <text x="80" y="67" text-anchor="middle" class="service-text">rag_flow 数据库</text>
      <text x="80" y="84" text-anchor="middle" class="service-text">equipment_iqas 数据库</text>
      <text x="80" y="104" text-anchor="middle" class="port-text">:3306</text>
    </g>

    <!-- ragflow-redis -->
    <g transform="translate(430, 50)">
      <rect class="server-box" x="0" y="0" width="160" height="130" style="fill:#FCE4EC;stroke:#C62828"/>
      <rect x="0" y="0" width="160" height="30" rx="8" style="fill:#C62828"/>
      <text x="80" y="20" text-anchor="middle" style="fill:white;font-size:13px;font-weight:bold">ragflow-redis</text>
      <text x="80" y="50" text-anchor="middle" class="service-text">Redis 缓存</text>
      <text x="80" y="67" text-anchor="middle" class="service-text">会话/Token缓存</text>
      <text x="80" y="84" text-anchor="middle" class="service-text">队列服务</text>
      <text x="80" y="104" text-anchor="middle" class="port-text">:6379</text>
    </g>

    <!-- Elasticsearch -->
    <g transform="translate(430, 220)">
      <rect class="server-box" x="0" y="0" width="160" height="130" style="fill:#F3E5F5;stroke:#6A1B9A"/>
      <rect x="0" y="0" width="160" height="30" rx="8" style="fill:#6A1B9A"/>
      <text x="80" y="20" text-anchor="middle" style="fill:white;font-size:13px;font-weight:bold">elasticsearch</text>
      <text x="80" y="50" text-anchor="middle" class="service-text">ES 8.x</text>
      <text x="80" y="67" text-anchor="middle" class="service-text">文档索引存储</text>
      <text x="80" y="84" text-anchor="middle" class="service-text">向量检索引擎</text>
      <text x="80" y="104" text-anchor="middle" class="port-text">:9200</text>
    </g>

    <!-- MinIO -->
    <g transform="translate(630, 50)">
      <rect class="server-box" x="0" y="0" width="130" height="130" style="fill:#FFF3E0;stroke:#E65100"/>
      <rect x="0" y="0" width="130" height="30" rx="8" style="fill:#E65100"/>
      <text x="65" y="20" text-anchor="middle" style="fill:white;font-size:13px;font-weight:bold">MinIO</text>
      <text x="65" y="50" text-anchor="middle" class="service-text">对象存储</text>
      <text x="65" y="67" text-anchor="middle" class="service-text">文件上传</text>
      <text x="65" y="84" text-anchor="middle" class="service-text">PDF/Word</text>
      <text x="65" y="104" text-anchor="middle" class="port-text">:9000</text>
    </g>

    <!-- Other ragflow services -->
    <g transform="translate(630, 220)">
      <rect class="server-box" x="0" y="0" width="130" height="130" style="fill:#ECEFF1;stroke:#546E7A"/>
      <rect x="0" y="0" width="130" height="30" rx="8" style="fill:#546E7A"/>
      <text x="65" y="20" text-anchor="middle" style="fill:white;font-size:12px;font-weight:bold">辅助服务</text>
      <text x="65" y="50" text-anchor="middle" class="service-text">ragflow-taskExecutor</text>
      <text x="65" y="67" text-anchor="middle" class="service-text">infinity (向量)</text>
      <text x="65" y="84" text-anchor="middle" class="service-text">selenium (解析)</text>
    </g>

    <!-- Data volume layer -->
    <g transform="translate(30, 400)">
      <rect x="0" y="0" width="730" height="80" rx="8" fill="#FFF8E1" stroke="#F9A825" stroke-width="1.5"/>
      <text x="365" y="20" text-anchor="middle" style="font-size:13px;font-weight:bold;fill:#F57F17">Docker 持久化卷</text>
      <text x="120" y="45" text-anchor="middle" class="service-text">mysql_data/</text>
      <text x="300" y="45" text-anchor="middle" class="service-text">redis_data/</text>
      <text x="480" y="45" text-anchor="middle" class="service-text">es_data/</text>
      <text x="640" y="45" text-anchor="middle" class="service-text">minio_data/</text>
      <text x="120" y="65" text-anchor="middle" class="service-text">ragflow/ (配置)</text>
      <text x="365" y="65" text-anchor="middle" class="service-text">gaisoft/uploadfile/ (上传文件)</text>
    </g>

    <!-- Internal connections -->
    <path d="M110,180 L110,220" class="arrow-dashed"/>
    <path d="M310,180 L310,220" class="arrow-dashed"/>
    <path d="M510,180 L510,220" class="arrow-dashed"/>
  </g>

  <!-- Client -> Nginx -->
  <path d="M230,150 L320,110" class="arrow"/>
  <text x="260" y="118" class="label">HTTP :80</text>

  <!-- Network label -->
  <g transform="translate(290, 510)">
    <rect x="0" y="0" width="780" height="50" rx="8" fill="#E8F5E9" stroke="#2E7D32" stroke-width="1.5"/>
    <text x="390" y="20" text-anchor="middle" style="font-size:13px;font-weight:bold;fill:#2E7D32">ragflow 桥接网络 (docker_ragflow)</text>
    <text x="390" y="40" text-anchor="middle" class="service-text">所有容器共享同一网络，通过容器名互相访问</text>
  </g>

  <!-- Test tools annotation -->
  <g transform="translate(30, 580)">
    <rect x="0" y="0" width="1040" height="90" rx="8" fill="#FFF3E0" stroke="#E65100" stroke-width="1.5"/>
    <text x="520" y="20" text-anchor="middle" style="font-size:13px;font-weight:bold;fill:#E65100">测试工具链</text>
    <text x="170" y="45" text-anchor="middle" class="service-text">Pytest 8.x (Python 测试框架)</text>
    <text x="440" y="45" text-anchor="middle" class="service-text">Playwright (浏览器自动化)</text>
    <text x="700" y="45" text-anchor="middle" class="service-text">requests (HTTP API 测试)</text>
    <text x="920" y="45" text-anchor="middle" class="service-text">Docker CLI (容器管理)</text>
    <text x="260" y="70" text-anchor="middle" class="service-text">48 E2E 测试用例 (6模块)</text>
    <text x="600" y="70" text-anchor="middle" class="service-text">覆盖: 认证 / 知识库 / 问答 / 文档 / 设备 / 系统</text>
  </g>
</svg>