<svg xmlns="http://www.w3.org/2000/svg" viewBox="0 0 960 620" width="960" height="620">
<style>text { font-family: "Microsoft YaHei", "SimHei", Arial, sans-serif; }</style>
<defs>
  <marker id="ab" markerWidth="10" markerHeight="7" refX="9" refY="3.5" orient="auto"><polygon points="0 0,10 3.5,0 7" fill="#2563eb"/></marker>
  <marker id="ag" markerWidth="10" markerHeight="7" refX="9" refY="3.5" orient="auto"><polygon points="0 0,10 3.5,0 7" fill="#16a34a"/></marker>
  <filter id="s1" x="-4%" y="-4%" width="108%" height="108%"><feDropShadow dx="0" dy="2" stdDeviation="3" flood-opacity="0.08"/></filter>
</defs>
<rect width="960" height="620" fill="#ffffff"/>
<text x="480" y="28" text-anchor="middle" fill="#111827" font-size="18" font-weight="600">DARPA智能问答服务工具 — 系统部署关系</text>

<!-- User -->
<rect x="390" y="48" width="180" height="40" rx="8" fill="#f9fafb" stroke="#d1d5db" stroke-width="1.2" filter="url(#s1)"/>
<text x="480" y="72" text-anchor="middle" fill="#111827" font-size="13">用户浏览器</text>
<line x1="480" y1="88" x2="480" y2="118" stroke="#2563eb" stroke-width="1.5" marker-end="url(#ab)"/>
<text x="500" y="108" fill="#6b7280" font-size="10">:8899</text>

<!-- gaisoft-frontend -->
<rect x="330" y="120" width="300" height="44" rx="8" fill="#eff6ff" stroke="#2563eb" stroke-width="1.2" filter="url(#s1)"/>
<text x="480" y="138" text-anchor="middle" fill="#2563eb" font-size="12" font-weight="600">前端界面</text>
<text x="480" y="155" text-anchor="middle" fill="#6b7280" font-size="10">Vue 3 + nginx :8899</text>
<line x1="480" y1="164" x2="480" y2="194" stroke="#2563eb" stroke-width="1.5" marker-end="url(#ab)"/>
<text x="500" y="184" fill="#6b7280" font-size="10">HTTP</text>

<!-- gaisoft-server -->
<rect x="310" y="196" width="340" height="50" rx="8" fill="#eff6ff" stroke="#2563eb" stroke-width="1.5" filter="url(#s1)"/>
<text x="480" y="218" text-anchor="middle" fill="#2563eb" font-size="13" font-weight="600">应用服务层 (Spring Boot)</text>
<text x="480" y="236" text-anchor="middle" fill="#6b7280" font-size="10">知识库管理 · 检索服务 · 对话服务 · 认证鉴权 :8088</text>
<line x1="480" y1="246" x2="480" y2="278" stroke="#2563eb" stroke-width="1.5" marker-end="url(#ab)"/>
<text x="500" y="268" fill="#6b7280" font-size="10">REST API</text>

<!-- ragflow-server -->
<rect x="310" y="280" width="340" height="50" rx="8" fill="#f0fdf4" stroke="#16a34a" stroke-width="1.5" filter="url(#s1)"/>
<text x="480" y="302" text-anchor="middle" fill="#16a34a" font-size="13" font-weight="600">RAG引擎 (ragflow v0.18.0)</text>
<text x="480" y="320" text-anchor="middle" fill="#6b7280" font-size="10">文档解析 · 向量检索 · LLM对话(GPT-4B) · MCP :8070/:9380</text>

<!-- Arrows from ragflow to storage layer -->
<line x1="380" y1="330" x2="160" y2="380" stroke="#16a34a" stroke-width="1.2" marker-end="url(#ag)"/>
<line x1="480" y1="330" x2="480" y2="380" stroke="#16a34a" stroke-width="1.2" marker-end="url(#ag)"/>
<line x1="580" y1="330" x2="790" y2="380" stroke="#16a34a" stroke-width="1.2" marker-end="url(#ag)"/>

<!-- MySQL -->
<rect x="60" y="384" width="200" height="44" rx="8" fill="#fff" stroke="#d1d5db" stroke-width="1.2" filter="url(#s1)"/>
<text x="160" y="404" text-anchor="middle" fill="#111827" font-size="12" font-weight="600">MySQL 8.0</text>
<text x="160" y="420" text-anchor="middle" fill="#6b7280" font-size="10">rag_flow + darpa_iqas :5455</text>

<!-- ES -->
<rect x="370" y="384" width="220" height="44" rx="8" fill="#fff" stroke="#d1d5db" stroke-width="1.2" filter="url(#s1)"/>
<text x="480" y="404" text-anchor="middle" fill="#111827" font-size="12" font-weight="600">Elasticsearch 8.11</text>
<text x="480" y="420" text-anchor="middle" fill="#6b7280" font-size="10">向量索引 + 全文检索 :1200</text>

<!-- Redis + MinIO -->
<rect x="660" y="384" width="240" height="44" rx="8" fill="#fff" stroke="#d1d5db" stroke-width="1.2" filter="url(#s1)"/>
<text x="780" y="404" text-anchor="middle" fill="#111827" font-size="12" font-weight="600">Redis(Valkey) + MinIO</text>
<text x="780" y="420" text-anchor="middle" fill="#6b7280" font-size="10">缓存:6580 · 对象存储:9100</text>

<!-- gaisoft-server to MySQL direct -->
<line x1="340" y1="240" x2="200" y2="384" stroke="#2563eb" stroke-width="1" stroke-dasharray="5,3" marker-end="url(#ab)"/>
<text x="250" y="310" fill="#6b7280" font-size="10">JDBC</text>

<!-- Docker network label -->
<rect x="40" y="460" width="880" height="40" rx="8" fill="#f9fafb" stroke="#d1d5db" stroke-width="1" stroke-dasharray="6,3"/>
<text x="480" y="484" text-anchor="middle" fill="#6b7280" font-size="12">Docker Bridge Network (docker_ragflow) · 所有容器共享网络 · 服务名互访</text>

<!-- Offline deployment -->
<rect x="240" y="530" width="480" height="40" rx="8" fill="#fff7ed" stroke="#fed7aa" stroke-width="1.2"/>
<text x="480" y="554" text-anchor="middle" fill="#9a3412" font-size="12">离线部署：offline-load.sh 加载镜像 → start.sh demo 启动 → 无外网依赖运行</text>

<!-- Legend -->
<g transform="translate(40,590)">
  <line x1="0" y1="8" x2="30" y2="8" stroke="#2563eb" stroke-width="1.5" marker-end="url(#ab)"/>
  <text x="36" y="12" fill="#6b7280" font-size="10">请求/数据流</text>
  <line x1="140" y1="8" x2="170" y2="8" stroke="#16a34a" stroke-width="1.5" marker-end="url(#ag)"/>
  <text x="176" y="12" fill="#6b7280" font-size="10">存储访问</text>
</g>
</svg>